{/*?xml version="1.0" standalone="no"?*/}
<svg version={1.0} xmlns="http://www.w3.org/2000/svg" width="1000.000000pt" height="1000.000000pt" viewBox="0 0 1000.000000 1000.000000" preserveAspectRatio="xMidYMid meet">
  <metadata>
    Created by potrace 1.16, written by Peter Selinger 2001-2019
  </metadata>
  <g transform="translate(0.000000,1000.000000) scale(0.100000,-0.100000)" fill="#000000" stroke="none">
    <path d="M0 5000 l0 -5000 5000 0 5000 0 0 5000 0 5000 -5000 0 -5000 0 0
-5000z m3285 1450 l560 -571 3 -54 3 -55 -423 0 -423 0 -433 433 -433 433 3
54 3 54 235 138 c225 132 236 138 290 138 l55 0 560 -570z m3665 524 l0 -47
36 48 37 47 146 -5 c165 -6 248 -24 389 -85 262 -113 425 -306 489 -580 24
-103 24 -392 0 -499 -77 -341 -307 -569 -671 -665 -79 -22 -99 -22 -858 -25
l-777 -4 -3 43 -3 43 -29 -42 -29 -43 -188 0 -189 0 -2 -642 -3 -643 -1122 -3
-1123 -2 0 52 0 52 -32 -45 c-18 -24 -37 -47 -43 -51 -34 -25 -287 4 -425 48
-317 100 -518 304 -592 602 -32 125 -32 407 0 534 38 153 88 254 181 366 96
115 289 229 476 279 l100 27 773 4 772 3 0 -46 0 -47 33 44 33 43 187 3 187 2
0 640 0 640 1125 0 1125 0 0 -46z m478 -2277 l432 -432 0 -55 -1 -55 -235
-137 c-229 -134 -237 -138 -293 -138 l-58 0 -561 572 -562 572 0 53 0 53 423
0 422 0 433 -433z m-4548 -1287 c0 -64 -3 -80 -15 -80 -12 0 -15 -13 -15 -60
l0 -60 -55 0 -55 0 0 -50 0 -50 -95 0 -95 0 0 190 0 190 165 0 165 0 0 -80z
m950 46 l0 -34 56 -4 c81 -7 84 -14 84 -175 l0 -133 -170 0 -170 0 0 190 0
190 100 0 100 0 0 -34z m1635 4 c25 -24 26 -28 21 -110 -6 -107 -6 -94 0 -172
l6 -68 -191 0 -191 0 0 191 0 191 164 -4 c159 -3 165 -4 191 -28z m695 -160
l0 -190 -95 0 -95 0 0 190 0 190 95 0 95 0 0 -190z m620 156 l0 -34 56 -4 c81
-7 84 -14 84 -175 l0 -133 -170 0 -170 0 0 190 0 190 100 0 100 0 0 -34z
m-3581 -47 c17 -6 36 -19 41 -29 6 -10 10 -75 10 -144 l0 -126 -149 0 c-137 0
-150 2 -176 22 l-28 22 7 110 c7 119 17 142 65 149 57 9 200 6 230 -4z m381
-74 c0 -84 0 -85 -25 -85 -32 0 -45 -26 -45 -89 l0 -51 -90 0 -90 0 0 155 0
155 125 0 125 0 0 -85z m749 74 c17 -6 36 -19 41 -29 6 -10 10 -75 10 -144 l0
-126 -149 0 c-137 0 -150 2 -176 22 l-28 22 7 110 c7 119 17 142 65 149 57 9
200 6 230 -4z m425 0 c32 -15 36 -32 36 -176 l0 -123 -165 0 -165 0 0 155 0
155 135 0 c78 0 144 -5 159 -11z m1086 -7 c48 -23 60 -53 60 -148 0 -74 -2
-84 -25 -106 -30 -30 -63 -38 -154 -38 -142 0 -181 33 -181 153 0 94 20 127
90 150 8 3 51 6 95 6 57 1 90 -4 115 -17z m678 -62 c-2 -44 0 -80 5 -80 4 0 7
-34 7 -75 l0 -75 -157 0 -156 0 6 113 c4 61 7 131 7 155 l0 42 146 0 146 0 -4
-80z m761 69 c17 -6 36 -19 41 -29 6 -10 10 -75 10 -144 l0 -126 -149 0 c-137
0 -150 2 -176 22 l-28 22 7 110 c7 119 17 142 65 149 57 9 200 6 230 -4z" />
    <path d="M6625 6463 l-30 -43 -647 0 -648 0 0 -300 0 -300 389 0 390 0 3 -42
3 -42 29 42 28 41 497 3 496 3 66 31 c115 55 193 159 193 259 0 93 -80 208
-181 258 -76 38 -140 47 -353 47 l-199 0 -3 43 -3 42 -30 -42z" />
    <path d="M3888 5122 l-28 -41 -492 -3 -493 -3 -60 -24 c-83 -33 -164 -115
-194 -196 -20 -53 -22 -66 -12 -111 13 -58 66 -142 114 -178 18 -14 60 -38 92
-53 59 -28 62 -28 293 -31 l232 -3 0 -47 0 -47 33 47 32 47 648 1 647 0 0 300
0 300 -389 0 -390 0 -3 42 -3 42 -27 -42z" />
  </g>
</svg>
